<svg width="160" height="160" viewBox="0 0 160 160" fill="none" xmlns="http://www.w3.org/2000/svg">
<path fill-rule="evenodd" clip-rule="evenodd" d="M89.027 62.4935V83.9176C98.0418 88.2799 105.146 83.9176 105.146 72.4033C105.146 60.8889 100.985 55.3978 88.7368 51.1807C83.9068 49.5761 74.9566 46.8587 68.7882 45.7218V109.696L83.2779 114.284V60.6389C83.2779 58.1151 84.4068 56.4299 86.2129 57.0104C88.5755 57.6635 89.0351 59.9938 89.0351 62.4935H89.027ZM117.773 90.6585C111.709 88.3766 103.993 87.5945 97.6951 88.2798C91.3896 88.9652 86.9064 90.5537 86.9064 90.5537L86.0194 90.844V99.5604L101.501 94.1015C104.162 93.142 108.024 92.9404 110.185 93.65C112.314 94.3434 111.911 95.6739 109.282 96.6495L86.0114 104.931V113.308L117.619 101.955C117.619 101.955 121.869 100.375 123.627 98.1977C125.36 95.9964 124.586 92.8275 117.757 90.6585H117.773ZM42.2357 104.052C35.2368 102.1 34.0676 97.9719 37.2607 95.5933L37.2526 95.6013C40.1957 93.4242 45.2191 91.7874 45.2191 91.7874L65.9741 84.3853V92.8033L51.0489 98.1493C48.4041 99.1008 48.009 100.431 50.1377 101.125C52.3068 101.85 56.153 101.657 58.7977 100.681L65.9741 98.0929V105.608L65.835 105.63C65.412 105.697 64.9518 105.769 64.5307 105.842C57.3786 107.035 49.7588 106.543 42.2357 104.052ZM118.732 107.43C116.692 107.43 115.289 108.946 115.289 110.857C115.289 112.768 116.692 114.284 118.732 114.284C120.772 114.284 122.143 112.784 122.143 110.857C122.143 108.93 120.764 107.43 118.732 107.43ZM118.732 113.784C116.966 113.784 115.837 112.478 115.837 110.865C115.837 109.252 116.966 107.962 118.732 107.962C120.498 107.962 121.611 109.269 121.611 110.865C121.611 112.462 120.466 113.784 118.732 113.784ZM119.474 110.857V110.873H119.466C119.724 110.938 119.901 111.131 120.03 111.591C120.102 111.836 120.178 112.074 120.251 112.301C120.31 112.486 120.367 112.663 120.417 112.833H119.692C119.632 112.648 119.56 112.384 119.494 112.144C119.454 111.996 119.416 111.857 119.385 111.752C119.272 111.292 119.143 111.147 118.547 111.147H118.079V112.833H117.37V108.865H118.942C119.668 108.865 120.2 109.083 120.2 109.898C120.2 110.365 119.974 110.712 119.474 110.857ZM118.087 110.647H118.716C119.216 110.647 119.522 110.454 119.522 109.994C119.522 109.454 119.151 109.373 118.764 109.373H118.087V110.647Z" fill="white"/>
</svg>
